<svg width="312" height="312" viewBox="0 0 312 312" fill="none" xmlns="http://www.w3.org/2000/svg">
<g id="Orbiter_Profile icon_White2">
<rect width="104" height="104" transform="scale(3)" fill="#060606"/>
<path id="Vector 4" fillRule="evenodd" clip-rule="evenodd" d="M188.942 163.558C188.259 155.235 187.043 140.393 186.678 131.41C186.399 123.312 183.005 115.641 177.215 110.027C171.425 104.412 163.693 101.294 155.663 101.336C147.637 101.3 139.913 104.421 134.128 110.035C128.344 115.649 124.954 123.316 124.677 131.41C124.266 140.944 123.005 156.971 122.362 164.829C122.317 165.405 122.393 165.984 122.586 166.528C122.778 167.072 123.082 167.568 123.478 167.985C123.875 168.401 124.354 168.728 124.885 168.944C125.416 169.16 125.986 169.26 126.557 169.237C132.217 168.993 142.655 168.642 155.275 168.7C168.22 168.759 179.04 169.174 184.855 169.448C185.429 169.472 186.001 169.373 186.535 169.157C187.067 168.941 187.549 168.613 187.947 168.195C188.344 167.777 188.65 167.279 188.842 166.733C189.034 166.186 189.109 165.606 189.062 165.028C189.024 164.565 188.984 164.074 188.942 163.558ZM145.495 119.327C148.493 117.306 152.017 116.229 155.622 116.229H155.634C160.465 116.234 165.097 118.174 168.511 121.622C171.926 125.071 173.844 129.746 173.844 134.621C173.844 138.259 172.775 141.815 170.771 144.839C168.769 147.864 165.921 150.221 162.591 151.613C159.26 153.005 155.594 153.369 152.059 152.659C148.523 151.948 145.275 150.196 142.726 147.624C140.177 145.051 138.442 141.773 137.739 138.205C137.037 134.638 137.398 130.94 138.779 127.579C140.159 124.218 142.496 121.346 145.495 119.327Z" fill="url(#paint0_linear_541_206)"/>
<path id="Vector 3" d="M155.948 124.075C157.006 125.3 157.589 126.87 157.591 128.495C157.572 129.425 157.372 130.342 157.002 131.193C156.631 132.045 156.099 132.815 155.433 133.459C154.768 134.102 153.983 134.607 153.124 134.945C152.266 135.282 151.349 135.446 150.427 135.426C149.364 135.432 148.312 135.202 147.346 134.751C146.381 134.3 145.526 133.639 144.844 132.816C144.716 133.466 144.651 134.126 144.647 134.789C144.647 140.709 149.6 145.508 155.71 145.508C161.821 145.508 166.768 140.709 166.768 134.789C166.768 128.869 161.948 124.169 155.948 124.075Z" fill="white"/>
<path id="Vector 2" d="M172.287 112.956C172.146 112.965 172.005 112.945 171.872 112.898C171.739 112.852 171.616 112.778 171.511 112.683C171.406 112.588 171.321 112.473 171.26 112.345C171.2 112.216 171.165 112.076 171.159 111.934C171.066 109.54 171.494 104.636 177.639 99.2822C181.875 95.5981 187.771 94.2669 195.189 95.3179C195.331 95.3376 195.467 95.386 195.59 95.4602C195.712 95.5343 195.818 95.6327 195.902 95.7495C195.986 95.8662 196.046 95.9989 196.077 96.1394C196.109 96.28 196.112 96.4255 196.087 96.5673V96.5673C196.037 96.832 195.89 97.0681 195.676 97.2283C195.461 97.3885 195.195 97.4611 194.929 97.4314C188.176 96.468 182.876 97.6241 179.15 100.859C173.803 105.529 173.329 109.716 173.364 111.864C173.37 112.14 173.269 112.408 173.084 112.611C172.898 112.813 172.641 112.935 172.368 112.95L172.287 112.956Z" fill="white"/>
<path id="Ellipse 2" d="M193.687 98.5414C195.384 98.5414 196.76 97.2056 196.76 95.5579C196.76 93.9102 195.384 92.5744 193.687 92.5744C191.99 92.5744 190.614 93.9102 190.614 95.5579C190.614 97.2056 191.99 98.5414 193.687 98.5414Z" fill="white"/>
<path id="Vector 1" d="M140.167 113.155C140.308 113.165 140.449 113.145 140.582 113.099C140.715 113.053 140.838 112.981 140.943 112.886C141.048 112.792 141.133 112.677 141.194 112.548C141.254 112.42 141.289 112.281 141.296 112.139C141.394 109.687 140.989 104.099 134.815 98.7103C130.585 95.0262 124.683 93.695 117.265 94.746C117.124 94.7665 116.988 94.8154 116.866 94.8898C116.744 94.9642 116.638 95.0626 116.554 95.1791C116.471 95.2956 116.411 95.428 116.379 95.5682C116.347 95.7084 116.344 95.8537 116.368 95.9954C116.417 96.2601 116.564 96.4962 116.779 96.6564C116.993 96.8167 117.26 96.8892 117.525 96.8595C124.278 95.8961 129.584 97.0522 133.305 100.287C138.669 104.958 139.132 109.827 139.062 112.034C139.054 112.312 139.154 112.581 139.339 112.786C139.525 112.991 139.783 113.115 140.058 113.131L140.167 113.155Z" fill="white"/>
<path id="Ellipse 1" d="M119.215 98.5414C120.912 98.5414 122.288 97.2056 122.288 95.5579C122.288 93.9102 120.912 92.5744 119.215 92.5744C117.519 92.5744 116.143 93.9102 116.143 95.5579C116.143 97.2056 117.519 98.5414 119.215 98.5414Z" fill="white"/>
<path id="Vector " fillRule="evenodd" clip-rule="evenodd" d="M254.472 207.294C254.472 197.62 230.458 182.253 230.458 182.253L230.18 182.171C230.579 180.543 230.958 179.006 231.318 177.548L231.32 177.539C234.531 164.524 236.201 157.756 236.435 148.308C237.014 124.306 231.014 103.988 215.934 86.1741C201.914 69.6102 179.596 60 155.756 60C130.417 60 110.888 69.7445 96.3936 85.888C81.8988 102.032 74.6253 119.541 75.0419 148.039C75.1634 156.014 76.9572 169.402 80.8283 181.406L80.5563 181.488C80.5563 181.488 57 196.563 57 207.008C57 210.097 69.73 214.015 95.9885 215.258L81.3432 237.398C80.7646 239.283 81.1234 241.876 82.6915 242.985C84.2374 244.012 86.006 244.647 87.8471 244.836C90.6304 244.918 91.4983 244.106 92.5225 242.244L107.226 216.414C122.849 217.039 132.79 217.372 150.664 217.407V246.967C150.768 248.748 151.514 252 156.254 252C160.558 252 161.299 248.952 161.299 246.967V217.424C165.782 217.415 169.751 217.424 173.429 217.432C184.398 217.455 192.776 217.473 204.454 217.01L219.863 241.958C220.144 242.763 220.678 243.453 221.384 243.922C222.091 244.392 222.931 244.614 223.775 244.556C225.279 244.578 226.758 244.173 228.045 243.388C229.781 242.606 229.781 239.727 229.081 237.118L214.569 215.83C239.913 213.705 254.472 209.776 254.472 207.294ZM102.4 204.457C100.042 204.42 97.7952 203.44 96.1535 201.732C94.5118 200.024 93.6095 197.728 93.645 195.349C93.645 190.316 97.5624 186.807 102.4 186.807C107.237 186.807 111.155 190.31 111.155 195.349C111.189 197.727 110.286 200.023 108.644 201.73C107.003 203.438 104.757 204.419 102.4 204.457ZM150.646 203.561C152.168 204.528 153.941 205.015 155.738 204.959C158.097 204.922 160.343 203.942 161.985 202.234C163.626 200.526 164.529 198.23 164.493 195.851C164.494 194.036 163.957 192.263 162.952 190.758C161.948 189.253 160.521 188.085 158.854 187.403C157.187 186.721 155.357 186.557 153.598 186.931C151.838 187.306 150.229 188.201 148.977 189.504C147.725 190.807 146.887 192.457 146.57 194.243C146.253 196.029 146.471 197.87 147.198 199.53C147.924 201.19 149.125 202.594 150.646 203.561ZM209.072 205.467C207.274 205.523 205.501 205.036 203.979 204.069C202.458 203.101 201.257 201.698 200.53 200.038C199.804 198.378 199.586 196.537 199.903 194.751C200.22 192.964 201.058 191.315 202.31 190.012C203.562 188.71 205.171 187.813 206.93 187.44C208.69 187.065 210.521 187.229 212.187 187.911C213.854 188.593 215.281 189.761 216.286 191.266C217.29 192.771 217.826 194.544 217.826 196.359C217.86 198.738 216.958 201.033 215.316 202.74C213.675 204.448 211.429 205.429 209.072 205.467ZM159.093 174.709C182.764 174.699 206.341 174.69 222.502 178.843C222.737 177.919 223.005 176.908 223.293 175.819C225.165 168.744 227.91 158.372 228.387 147.181C230.145 106.153 201.74 67.193 155.733 67.193C109.725 67.193 82.2401 106.124 83.5594 147.181C83.8429 156.014 86.0534 167.417 88.8713 178.843C105.445 174.533 125.432 174.608 146.878 174.688C149.804 174.699 152.757 174.71 155.733 174.71C156.852 174.71 157.973 174.709 159.093 174.709Z" fill="white"/>
</g>
<defs>
<linearGradient id="paint0_linear_541_206" x1="100.135" y1="143.832" x2="156.123" y2="199.883" gradientUnits="userSpaceOnUse">
<stop stop-color="#EF2F2D"/>
<stop offset="1" stop-color="#89272D"/>
</linearGradient>
</defs>
</svg>
